<svg width="32" height="32" viewBox="0 0 32 32" fill="none" xmlns="http://www.w3.org/2000/svg">
  <!-- Background -->
  <rect width="32" height="32" rx="8" fill="url(#gradient)"/>
  
  <!-- Building -->
  <rect x="7" y="10" width="18" height="18" rx="1.5" fill="white" fill-opacity="0.95"/>
  
  <!-- Windows Row 1 -->
  <rect x="9" y="12" width="3" height="3" rx="0.5" fill="#7c3aed"/>
  <rect x="14.5" y="12" width="3" height="3" rx="0.5" fill="#7c3aed"/>
  <rect x="20" y="12" width="3" height="3" rx="0.5" fill="#7c3aed"/>
  
  <!-- Windows Row 2 -->
  <rect x="9" y="17" width="3" height="3" rx="0.5" fill="#7c3aed"/>
  <rect x="14.5" y="17" width="3" height="3" rx="0.5" fill="#7c3aed"/>
  <rect x="20" y="17" width="3" height="3" rx="0.5" fill="#7c3aed"/>
  
  <!-- Door -->
  <rect x="13" y="22" width="6" height="6" rx="1" fill="#7c3aed"/>
  
  <!-- Roof -->
  <path d="M5 11.5L16 3L27 11.5H5Z" fill="white" fill-opacity="0.95"/>
  
  <!-- Speech Bubble (community) -->
  <circle cx="6" cy="6" r="2.5" fill="#22c55e"/>
  <circle cx="26" cy="6" r="2.5" fill="#f59e0b"/>
  
  <defs>
    <linearGradient id="gradient" x1="0" y1="0" x2="32" y2="32" gradientUnits="userSpaceOnUse">
      <stop stop-color="#7c3aed"/>
      <stop offset="1" stop-color="#4f46e5"/>
    </linearGradient>
  </defs>
</svg>
