<svg xmlns="http://www.w3.org/2000/svg"  viewBox="0 0 50 50" width="50px" height="50px"><path fill="white" d="M 24.990234 0 A 1.0001 1.0001 0 0 0 24.072266 0.62890625 L 22.197266 5.3183594 C 16.370102 6.6041645 12 11.79547 12 18 C 12 24.904762 11.014874 30.059272 10.039062 33.474609 C 9.0632523 36.889947 8.1308594 38.503906 8.1308594 38.503906 A 1.0001 1.0001 0 0 0 8.2695312 39.681641 C 8.2695312 39.681641 10.647261 42.232282 13.880859 44.785156 C 17.114458 47.338031 21.166525 50 25 50 C 28.833475 50 32.885542 47.338031 36.119141 44.785156 C 39.352739 42.232282 41.730469 39.681641 41.730469 39.681641 A 1.0001 1.0001 0 0 0 41.869141 38.503906 C 41.869141 38.503906 40.936748 36.889947 39.960938 33.474609 C 38.985126 30.059272 38 24.904762 38 18 C 38 11.79547 33.629898 6.6041645 27.802734 5.3183594 L 25.927734 0.62890625 A 1.0001 1.0001 0 0 0 24.990234 0 z M 25 3.6914062 L 25.951172 6.0703125 L 25 9.875 L 24.048828 6.0703125 L 25 3.6914062 z M 22.304688 7.3417969 L 24.029297 14.242188 A 1.0001 1.0001 0 0 0 25.970703 14.242188 L 27.695312 7.3417969 C 32.467731 8.5433947 36 12.846003 36 18 A 1.0001 1.0001 0 0 0 36.007812 18.113281 C 36.008217 18.346266 36.018944 18.561794 36.021484 18.791016 A 1.0001 1.0001 0 0 0 36 19 C 36 24.407402 33.341348 31.515811 30.123047 37.519531 C 30.121647 37.522031 30.120541 37.524844 30.119141 37.527344 L 27.142578 42.486328 A 1.0001 1.0001 0 1 0 28.857422 43.513672 L 31.857422 38.513672 A 1.0001 1.0001 0 0 0 31.880859 38.472656 C 33.779683 34.931482 35.493536 31.037456 36.626953 27.216797 C 37.008214 29.935668 37.520711 32.21116 38.039062 34.025391 C 38.916986 37.098118 39.589757 38.256203 39.832031 38.714844 C 39.499859 39.065189 37.729156 40.966159 34.880859 43.214844 C 31.78122 45.661969 27.833525 48 25 48 C 22.166475 48 18.218792 45.661969 15.119141 43.214844 C 12.270844 40.966159 10.500141 39.065189 10.167969 38.714844 C 10.410243 38.256203 11.083014 37.098118 11.960938 34.025391 C 12.479145 32.211661 12.991811 29.937085 13.373047 27.21875 C 14.506475 31.038838 16.220608 34.932025 18.119141 38.472656 A 1.0001 1.0001 0 0 0 18.142578 38.513672 L 21.142578 43.513672 A 1.0001 1.0001 0 1 0 22.857422 42.486328 L 19.880859 37.527344 L 19.876953 37.519531 C 16.658643 31.515794 14 24.407402 14 19 A 1.0001 1.0001 0 0 0 13.980469 18.789062 C 13.982953 18.564955 13.991745 18.354654 13.992188 18.126953 A 1.0001 1.0001 0 0 0 14 18 C 14 12.846003 17.532269 8.5433947 22.304688 7.3417969 z M 16 22 C 16 22 17.583 28 19 28 C 20.417 28 23 27 23 27 C 21.583 23.833 16 22 16 22 z M 34 22 C 34 22 28.417 23.833 27 27 C 27 27 29.583 28 31 28 C 32.417 28 34 22 34 22 z"/></svg>